<svg width="14" height="14" viewBox="0 0 14 14" fill="none" xmlns="http://www.w3.org/2000/svg">
<path fill-rule="evenodd" clip-rule="evenodd" d="M3.63637 0.383545L12.6589 0.383545C12.8185 0.383545 12.9714 0.446917 13.0843 0.559721C13.1971 0.672525 13.2604 0.82552 13.2604 0.985049V10.0076C13.2604 10.3398 12.9911 10.6091 12.6589 10.6091C12.3267 10.6091 12.0574 10.3398 12.0574 10.0076V2.43721L1.05418 13.4405C0.819273 13.6754 0.438422 13.6754 0.20352 13.4405C-0.0313817 13.2055 -0.0313817 12.8247 0.20352 12.5898L11.2068 1.58655L3.63637 1.58655C3.30416 1.58655 3.03486 1.31725 3.03486 0.985049C3.03486 0.652848 3.30416 0.383545 3.63637 0.383545Z" fill="white"/>
</svg>
