<svg width="24" height="25" viewBox="0 0 24 25" fill="none" xmlns="http://www.w3.org/2000/svg">
<circle cx="12" cy="12.8198" r="9.5" fill="white" stroke="white"/>
<path d="M17.1253 13.0667H15.6981V12.4907H17.1253C17.4017 12.4907 17.6255 12.4467 17.7967 12.3586C17.9679 12.2706 18.0926 12.1483 18.1709 11.9917C18.2516 11.8352 18.2919 11.6567 18.2919 11.4561C18.2919 11.2727 18.2516 11.1002 18.1709 10.9388C18.0926 10.7774 17.9679 10.6477 17.7967 10.5499C17.6255 10.4496 17.4017 10.3995 17.1253 10.3995H15.8632V15.1615H15.1552V9.81982H17.1253C17.5288 9.81982 17.87 9.88953 18.1489 10.0289C18.4277 10.1684 18.6393 10.3616 18.7836 10.6086C18.9279 10.8532 19 11.1332 19 11.4488C19 11.7912 18.9279 12.0835 18.7836 12.3256C18.6393 12.5677 18.4277 12.7524 18.1489 12.8796C17.87 13.0043 17.5288 13.0667 17.1253 13.0667Z" fill="black"/>
<path d="M12.3852 13.0667H10.958V12.4907H12.3852C12.6615 12.4907 12.8853 12.4467 13.0565 12.3586C13.2278 12.2706 13.3525 12.1483 13.4308 11.9917C13.5115 11.8352 13.5518 11.6567 13.5518 11.4561C13.5518 11.2727 13.5115 11.1002 13.4308 10.9388C13.3525 10.7774 13.2278 10.6477 13.0565 10.5499C12.8853 10.4496 12.6615 10.3995 12.3852 10.3995H11.1231V15.1615H10.415V9.81982H12.3852C12.7887 9.81982 13.1299 9.88953 13.4087 10.0289C13.6876 10.1684 13.8991 10.3616 14.0434 10.6086C14.1878 10.8532 14.2599 11.1332 14.2599 11.4488C14.2599 11.7912 14.1878 12.0835 14.0434 12.3256C13.8991 12.5677 13.6876 12.7524 13.4087 12.8796C13.1299 13.0043 12.7887 13.0667 12.3852 13.0667Z" fill="black"/>
<path d="M7.49109 10.2931L5.72275 15.1615H5L7.03616 9.81982H7.5021L7.49109 10.2931ZM8.97327 15.1615L7.20126 10.2931L7.19025 9.81982H7.65618L9.69969 15.1615H8.97327ZM8.88155 13.1841V13.7637H5.8805V13.1841H8.88155Z" fill="black"/>
</svg>
