<svg width="24" height="25" viewBox="0 0 24 25" fill="none" xmlns="http://www.w3.org/2000/svg">
<path d="M17.812 5.83682H6.145C3.855 5.83682 2 7.67182 2 9.93582V15.7038C2 17.9678 3.856 19.8038 6.145 19.8038H17.812C20.102 19.8038 21.957 17.9678 21.957 15.7038V9.93582C21.957 7.67182 20.101 5.83582 17.812 5.83582V5.83682ZM15.009 13.0998L9.552 15.6748C9.51872 15.6908 9.48192 15.6982 9.44503 15.6962C9.40815 15.6942 9.37237 15.6828 9.34103 15.6633C9.3097 15.6437 9.28382 15.6165 9.2658 15.5843C9.24779 15.552 9.23822 15.5158 9.238 15.4788V10.1698C9.23867 10.1327 9.24872 10.0963 9.26722 10.0641C9.28573 10.0319 9.31208 10.005 9.34382 9.98569C9.37556 9.96643 9.41167 9.95551 9.44877 9.95396C9.48587 9.9524 9.52276 9.96027 9.556 9.97682L15.014 12.7118C15.0504 12.7299 15.0809 12.758 15.102 12.7926C15.1232 12.8273 15.1341 12.8673 15.1336 12.9079C15.1331 12.9485 15.1211 12.9882 15.0991 13.0223C15.077 13.0564 15.0458 13.0836 15.009 13.1008V13.0998Z" fill="white"/>
</svg>
