<svg width="24" height="25" viewBox="0 0 24 25" fill="none" xmlns="http://www.w3.org/2000/svg">
<path d="M2 10.4178C2 12.2345 2.98301 13.8942 4.50223 14.9932C4.63627 15.0829 4.70329 15.2174 4.70329 15.3969C4.70329 15.4417 4.68094 15.509 4.68094 15.5539C4.56925 16.0024 4.36814 16.7426 4.34583 16.765C4.32348 16.8323 4.30112 16.8771 4.30112 16.9444C4.30112 17.079 4.41285 17.1911 4.54689 17.1911C4.5916 17.1911 4.63627 17.1687 4.68094 17.1463L6.26718 16.2267C6.37886 16.1594 6.51291 16.1146 6.64699 16.1146C6.71397 16.1146 6.80335 16.1146 6.87037 16.137C7.60764 16.3613 8.4119 16.4734 9.23855 16.4734C13.2376 16.4734 16.4771 13.7596 16.4771 10.4178C16.4771 7.07595 13.2376 4.36212 9.23855 4.36212C5.23946 4.36212 2 7.07595 2 10.4178Z" fill="white"/>
<path d="M15.9822 20.0372C16.6731 20.0372 17.3417 19.9468 17.9434 19.766C17.988 19.7435 18.0549 19.7435 18.1217 19.7435C18.2332 19.7435 18.3446 19.7887 18.4338 19.8338L19.7487 20.6022C19.7933 20.6247 19.8156 20.6473 19.8601 20.6473C19.9716 20.6473 20.0607 20.5569 20.0607 20.444C20.0607 20.3988 20.0385 20.3536 20.0385 20.2858C20.0385 20.2632 19.8601 19.6531 19.771 19.2689C19.7487 19.2237 19.7487 19.1785 19.7487 19.1333C19.7487 18.9978 19.8156 18.8848 19.927 18.7944C21.1974 17.8679 21.9998 16.4895 21.9998 14.9529C21.9998 12.1509 19.303 9.86865 15.9822 9.86865C12.6614 9.86865 9.9646 12.1283 9.9646 14.9529C9.9646 17.7549 12.6614 20.0372 15.9822 20.0372Z" fill="white" stroke="black" stroke-width="0.416671"/>
<path d="M7.756 8.4627C7.756 8.98584 7.34497 9.39995 6.82578 9.39995C6.30654 9.39995 5.89551 8.98584 5.89551 8.4627C5.89551 7.93956 6.30658 7.52545 6.82578 7.52545C7.34497 7.52545 7.756 7.93956 7.756 8.4627ZM12.5817 8.4627C12.5817 8.98584 12.1706 9.39995 11.6514 9.39995C11.1322 9.39995 10.7212 8.98584 10.7212 8.4627C10.7212 7.93956 11.1323 7.52545 11.6514 7.52545C12.1707 7.52545 12.5817 7.93956 12.5817 8.4627Z" fill="black"/>
<path d="M17.2325 13.3834C17.2325 13.839 17.5942 14.2035 18.0464 14.2035C18.4986 14.2035 18.8604 13.839 18.8604 13.3834C18.8604 12.9278 18.4986 12.5633 18.0464 12.5633C17.5942 12.5633 17.2325 12.9277 17.2325 13.3834ZM13.2207 13.3834C13.2207 13.839 13.5825 14.2035 14.0347 14.2035C14.4869 14.2035 14.8486 13.839 14.8486 13.3834C14.8486 12.9278 14.4869 12.5633 14.0347 12.5633C13.5824 12.5633 13.2207 12.9278 13.2207 13.3834Z" fill="black"/>
</svg>
